<svg xmlns="http://www.w3.org/2000/svg" viewBox="0 0 295.64 184.77"><defs><style>.cls-1{fill:#180707;}.cls-2{fill:#ffd400;}</style></defs><g id="Layer_2" data-name="Layer 2"><g id="Layer_1-2" data-name="Layer 1"><path class="cls-1" d="M184.05,173.76l-2.85-1.69a12.66,12.66,0,0,1-3.81-3.15,5.84,5.84,0,0,1-1.14-3.56,6.25,6.25,0,0,1,2.15-4.91,8.17,8.17,0,0,1,5.58-1.88,10.72,10.72,0,0,1,6,1.8v4.15a8.8,8.8,0,0,0-6.1-2.66,5.18,5.18,0,0,0-3,.83,2.54,2.54,0,0,0-1.18,2.13,3.22,3.22,0,0,0,.87,2.15,11.1,11.1,0,0,0,2.8,2.11l2.87,1.65c3.2,1.87,4.79,4.24,4.79,7.12a6.44,6.44,0,0,1-2.11,5,7.81,7.81,0,0,1-5.48,1.92,11.76,11.76,0,0,1-7.08-2.33v-4.65c2,2.51,4.37,3.76,7,3.76a4.47,4.47,0,0,0,2.93-1,3,3,0,0,0,1.18-2.4C187.51,176.63,186.36,175.16,184.05,173.76Z"/><path class="cls-1" d="M220,158.57h2.63l11.75,25.72h-3.84l-3.49-7.58H215.91l-3.27,7.58h-3.86Zm5.51,14.88-4.23-9.26-3.92,9.26Z"/><path class="cls-1" d="M288.66,173.76l-2.85-1.69a12.85,12.85,0,0,1-3.82-3.15,5.84,5.84,0,0,1-1.13-3.56,6.24,6.24,0,0,1,2.14-4.91,8.21,8.21,0,0,1,5.58-1.88,10.77,10.77,0,0,1,6,1.8v4.15a8.8,8.8,0,0,0-6.1-2.66,5.15,5.15,0,0,0-3,.83,2.52,2.52,0,0,0-1.18,2.13,3.22,3.22,0,0,0,.87,2.15,10.92,10.92,0,0,0,2.8,2.11l2.86,1.65q4.8,2.81,4.8,7.12a6.44,6.44,0,0,1-2.11,5,7.85,7.85,0,0,1-5.49,1.92,11.71,11.71,0,0,1-7.07-2.33v-4.65c2,2.51,4.37,3.76,7,3.76a4.48,4.48,0,0,0,2.94-1,3,3,0,0,0,1.17-2.4C292.11,176.63,291,175.16,288.66,173.76Z"/><polygon class="cls-1" points="20.71 158.57 20.71 178.44 3.04 158.57 0 158.57 0 160.53 3.53 164.48 3.53 164.45 12.63 174.68 15.1 177.45 15.09 177.45 21.05 184.15 24.27 184.15 24.27 158.57 20.71 158.57"/><polygon class="cls-1" points="0 164.34 0 184.15 3.53 184.15 3.53 168.42 0 164.34"/><polygon class="cls-1" points="82.94 164.35 82.94 184.15 86.47 184.15 86.47 168.43 82.94 164.35"/><polygon class="cls-1" points="103.65 158.57 103.65 178.44 85.98 158.57 82.94 158.57 82.94 160.5 96.77 175.99 96.73 175.99 103.99 184.15 107.21 184.15 107.21 158.57 103.65 158.57"/><polygon class="cls-1" points="45.65 158.57 42.26 162.77 36.32 170.18 36.68 170.62 36.68 184.15 40.52 184.15 40.52 170.62 50.2 158.57 45.65 158.57"/><polygon class="cls-1" points="36.85 165.27 31.52 158.57 27 158.57 34.65 168.1 36.85 165.27"/><path class="cls-1" d="M129.26,181.22a14.75,14.75,0,0,1-3,.37,10.66,10.66,0,0,1-7.58-2.77,10,10,0,0,1,0-14.13,10,10,0,0,1,7.24-2.86,18.78,18.78,0,0,1,9.31,2.65v-3.73a34.8,34.8,0,0,0-5-1.71,17.78,17.78,0,0,0-4.2-.47,14.15,14.15,0,0,0-10.11,3.81,12.58,12.58,0,0,0-4,9.54,12.11,12.11,0,0,0,3.9,9.14q3.89,3.7,10.4,3.71a23.35,23.35,0,0,0,3.11-.22Z"/><path class="cls-1" d="M127,171.88v3.26h5v3.91h0v1.41h0l0,3.54a28,28,0,0,0,3.77-1.29V171.88Z"/><path class="cls-1" d="M238.74,170.27a9,9,0,0,1,2.86-5.45,10.52,10.52,0,0,1,7.48-2.77,18.36,18.36,0,0,1,9,2.56v-3.94a24.12,24.12,0,0,0-9.17-2.1,14.2,14.2,0,0,0-10.07,3.81,12.26,12.26,0,0,0-4,7.89Z"/><path class="cls-1" d="M249,181.4a10.58,10.58,0,0,1-7.49-2.71,8.85,8.85,0,0,1-2.86-5.79l-3.88-.06a12.62,12.62,0,0,0,1.72,5.47,12.81,12.81,0,0,0,4.84,4.74,14.91,14.91,0,0,0,7.44,1.72,19.89,19.89,0,0,0,9.53-2.2v-4A17.26,17.26,0,0,1,249,181.4Z"/><polygon class="cls-1" points="266.71 167.04 266.71 161.83 277.82 161.83 277.82 158.57 262.96 158.57 262.96 166.99 266.71 167.04"/><polygon class="cls-1" points="266.71 178.25 266.71 172.91 277.44 172.91 277.44 169.63 267.6 169.63 262.96 169.64 262.96 178.21 266.71 178.25"/><polygon class="cls-1" points="266.71 180.85 266.71 180.84 262.96 180.85 262.96 184.11 278.17 184.11 278.17 180.85 266.71 180.85"/><path class="cls-1" d="M209.25,160.55a8.69,8.69,0,0,0-6-2H195V167h3.77v-5.2h3.89c3.32,0,5,1.31,5,3.94a3.74,3.74,0,0,1-1.24,3,5.31,5.31,0,0,1-3.53,1.05h-4.11v0l-3.77-.06v14.46h3.77v-11.1h2.78a16.21,16.21,0,0,0,5.7-.78,6.54,6.54,0,0,0,3.14-2.5,7,7,0,0,0,1.14-3.95A6.72,6.72,0,0,0,209.25,160.55Z"/><path class="cls-1" d="M71.64,180.46l1.63,1.63h0l.2.2,1.6,1.6h3.85v-3.68l-1.81-1.8-.07-.08-1.71-1.71h0l0,0v-.07l-1.86-1.86L71.69,173l-.07-.07,0,.08v-.06L70,171.24l-.13-.13h0l-1.77-1.77-.07-.07,0,.06v0l-1.82-1.83-1.76-1.76,0-.05v0l-1.81-1.81,0,0,0,0-1.77-1.76h0l0,0h0l-1.79-1.79h0l0,0-1.75-1.75H53.45v3.84L55.18,164m7.36,7.36L64.16,173l.18.1-.25-.17.28.28,3.43,3.43H68l-.26-.05.25.26,1.66,1.65-.08-.08.24.24,1.61,1.61h.24m-10.94-10.7,1.69,1.69m-3.53-3.53,1.63,1.63h.19m-3.62-3.43,1.71,1.71m-3.55-3.55,1.63,1.64h.17"/><path class="cls-2" d="M53.45,176.62v7.27h5.44v-3.64h9l.05-.05-3.47-3.48-.11-.1H58.89v-5.46l-1.81-1.82h0l-1.82-1.82-1.79-1.8h0v3.5m0,.12v7.12l.07.07m1.73,5.57h0Z"/><path class="cls-1" d="M158.54,180.46l1.63,1.63h0l.2.2,1.6,1.6h3.84v-3.68l-1.8-1.8-.07-.08-1.72-1.71h0l0,0v-.07l-1.86-1.86L158.59,173l-.07-.07,0,.08v-.06l-1.69-1.69-.13-.13h0L155,169.34l-.07-.07,0,.06v0l-1.82-1.83-1.77-1.76,0-.05v0l-1.81-1.81,0,0,0,0-1.77-1.76h0l0,0h0l-1.79-1.79h0l-.05,0L144,158.43h-3.69v3.84l1.73,1.73m7.36,7.36,1.62,1.62.18.1-.25-.17.28.28,3.42,3.43h.22l-.26-.05.25.26,1.66,1.65-.08-.08.24.24,1.61,1.61h.24m-10.94-10.7,1.69,1.69m-3.53-3.53,1.63,1.63h.18M144,165.91l1.71,1.71m-3.55-3.55,1.63,1.64H144"/><path class="cls-2" d="M140.35,176.62v7.27h5.44v-3.64h9l.05-.05-3.47-3.48-.11-.1h-5.46v-5.46L144,169.34h0l-1.82-1.82-1.79-1.8h0v3.5m0,.12v7.12l.07.07m1.73,5.57h0Z"/><path class="cls-1" d="M176.05,114l8.43,8.43h0l1,1,8.3,8.3h19.88V112.66l-9.32-9.32-.4-.4-8.85-8.85H195l-.14.13v-.38l-9.6-9.6-9-9-.36-.36.12.41V75l-8.76-8.76-.65-.65h0l-9.16-9.16-.38-.37.14.33v-.2l-9.43-9.43-9.14-9.14-.25-.25v0l-9.34-9.34.1.1-.23-.23-9.12-9.12h0l-.24-.24h0l-9.23-9.23h0l-.27-.27L101,0H82V19.9l8.92,8.92M129,66.89l8.39,8.38.93.55-1.28-.9,1.43,1.44,17.73,17.73h1.13l-1.38-.25,1.34,1.33,8.54,8.55-.39-.4,1.25,1.26L175,112.9h1.21M119.59,57.52l8.74,8.75M110.09,48l8.44,8.43h1m-18.7-17.75,8.83,8.83M91.26,29.19l8.45,8.46h.87"/><path class="cls-1" d="M185.5,48V65.82l9.08,9.08.28-.29v.58L213.3,93.62l.38-.4V55.8l-.25.24.25-.24v-18l-.05-.06-.11-.09h.16V0H185.5V28.11l0,0,0,0V47M204.36,9.3V9.25l0,0Z"/><path class="cls-2" d="M82,94.09v37.65h28.13V112.9h46.48l.29-.29-18-18-.55-.55.08.09-.08-.09H110.09V65.85l-9.38-9.39h0L91.26,47,82,37.74h0V55.82m0,.64V93.27l.36.35m8.94,28.82,0,0,0,0Z"/></g></g></svg>